<svg width="335" height="46" viewBox="0 0 335 46" fill="none" xmlns="http://www.w3.org/2000/svg">
<path d="M0.84 0.199997H26.44C30.6213 0.199997 33.6933 1.16 35.656 3.08C37.6187 4.95733 38.6 7.83733 38.6 11.72C38.6 14.28 38.0453 16.3707 36.936 17.992C35.8267 19.5707 34.4613 20.68 32.84 21.32C36.296 22.2587 38.6427 24.5627 39.88 28.232C40.3067 29.5547 40.52 31.0907 40.52 32.84C40.52 37.0213 39.5387 40.0933 37.576 42.056C35.6133 44.0187 32.5413 45 28.36 45H0.84V0.199997ZM29 30.92C29 28.36 27.72 27.08 25.16 27.08H12.36V36.04H25.16C27.72 36.04 29 34.76 29 32.2V30.92ZM27.08 13C27.08 10.44 25.8 9.16 23.24 9.16H12.36V18.12H23.24C25.8 18.12 27.08 16.84 27.08 14.28V13ZM81.7975 45H46.2775V0.199997H81.7975V9.16H57.7975V17.8H76.6775V26.76H57.7975V36.04H81.7975V45ZM85.5585 35.72C97.2492 36.36 105.164 36.68 109.303 36.68C110.284 36.68 111.052 36.4027 111.607 35.848C112.204 35.2507 112.503 34.4613 112.503 33.48V27.72H97.7825C93.3025 27.72 90.0385 26.7173 87.9905 24.712C85.9852 22.664 84.9825 19.4 84.9825 14.92V13C84.9825 8.52 85.9852 5.27733 87.9905 3.272C90.0385 1.224 93.3025 0.199997 97.7825 0.199997H120.247V9.16H100.343C97.7825 9.16 96.5025 10.44 96.5025 13V14.28C96.5025 16.84 97.7825 18.12 100.343 18.12H111.863C116.044 18.12 119.116 19.1013 121.079 21.064C123.041 23.0267 124.023 26.0987 124.023 30.28V33.48C124.023 37.6613 123.041 40.7333 121.079 42.696C119.116 44.6587 116.044 45.64 111.863 45.64C109.687 45.64 107.383 45.5973 104.951 45.512L99.0625 45.256C94.7105 45.0427 90.2092 44.744 85.5585 44.36V35.72ZM148.35 45H136.83V9.16H123.39V0.199997H161.79V9.16H148.35V45ZM200.838 44.36C191.323 45.2133 183.43 45.64 177.158 45.64C172.976 45.64 169.904 44.6587 167.942 42.696C165.979 40.7333 164.998 37.6613 164.998 33.48V13C164.998 8.52 166 5.27733 168.006 3.272C170.054 1.224 173.318 0.199997 177.798 0.199997H200.838V9.16H180.358C177.798 9.16 176.518 10.44 176.518 13V33.48C176.518 34.4613 176.795 35.2507 177.35 35.848C177.947 36.4027 178.694 36.68 179.59 36.68C180.486 36.68 181.467 36.68 182.534 36.68C183.6 36.6373 184.71 36.5947 185.862 36.552C187.014 36.5093 188.166 36.4667 189.318 36.424C190.512 36.3813 192.027 36.296 193.862 36.168C195.739 36.04 198.064 35.8907 200.838 35.72V44.36ZM213.965 45H201.485L218.445 0.199997H231.245L248.205 45H235.725L232.845 37H216.845L213.965 45ZM219.725 28.68H229.965L224.845 13.64L219.725 28.68ZM251.403 0.199997H278.283C282.763 0.199997 286.005 1.224 288.011 3.272C290.059 5.27733 291.083 8.52 291.083 13V18.76C291.083 22.3013 290.485 25.0533 289.291 27.016C288.139 28.9787 286.282 30.28 283.722 30.92L291.723 45H279.243L271.883 31.56H262.923V45H251.403V0.199997ZM279.562 13C279.562 10.44 278.283 9.16 275.723 9.16H262.923V22.6H275.723C278.283 22.6 279.562 21.32 279.562 18.76V13ZM296.121 35.72C307.812 36.36 315.726 36.68 319.865 36.68C320.846 36.68 321.614 36.4027 322.169 35.848C322.766 35.2507 323.065 34.4613 323.065 33.48V27.72H308.345C303.865 27.72 300.601 26.7173 298.553 24.712C296.548 22.664 295.545 19.4 295.545 14.92V13C295.545 8.52 296.548 5.27733 298.553 3.272C300.601 1.224 303.865 0.199997 308.345 0.199997H330.809V9.16H310.905C308.345 9.16 307.065 10.44 307.065 13V14.28C307.065 16.84 308.345 18.12 310.905 18.12H322.425C326.606 18.12 329.678 19.1013 331.641 21.064C333.604 23.0267 334.585 26.0987 334.585 30.28V33.48C334.585 37.6613 333.604 40.7333 331.641 42.696C329.678 44.6587 326.606 45.64 322.425 45.64C320.249 45.64 317.945 45.5973 315.513 45.512L309.625 45.256C305.273 45.0427 300.772 44.744 296.121 44.36V35.72Z" fill="#005099"/>
</svg>
