<svg width="352" height="81" viewBox="0 0 352 81" fill="none" xmlns="http://www.w3.org/2000/svg">
<path d="M5.248 62.32V14.896H22.784C28.16 14.896 32.2773 16.0267 35.136 18.288C38.0373 20.5493 39.488 23.7707 39.488 27.952V28.912C39.488 31.0453 39.0827 32.8587 38.272 34.352C37.504 35.8027 36.416 36.9973 35.008 37.936C36.9707 38.832 38.528 40.112 39.68 41.776C40.832 43.44 41.408 45.5733 41.408 48.176V49.072C41.408 53.296 39.9787 56.56 37.12 58.864C34.2613 61.168 30.1013 62.32 24.64 62.32H5.248ZM23.424 23.088H15.488V34.48H23.424C25.3867 34.48 26.816 33.968 27.712 32.944C28.6507 31.92 29.12 30.5547 29.12 28.848C29.12 27.056 28.6507 25.648 27.712 24.624C26.816 23.6 25.3867 23.088 23.424 23.088ZM25.152 42.416H15.488V54.128H25.152C27.1147 54.128 28.5867 53.6373 29.568 52.656C30.5493 51.632 31.04 50.16 31.04 48.24C31.04 44.3573 29.0773 42.416 25.152 42.416ZM49.5605 62V15.28H78.4885V23.984H59.8005V33.904H77.4645V42.608H59.8005V53.296H78.9365V62H49.5605ZM103.504 63.216C99.28 63.216 95.696 62.5547 92.752 61.232C89.8507 59.9093 87.6533 58.0747 86.16 55.728C84.7093 53.3813 83.984 50.6933 83.984 47.664H94.16C94.16 49.456 94.8853 51.0347 96.336 52.4C97.8293 53.7227 100.219 54.384 103.504 54.384C106.405 54.384 108.624 53.8293 110.16 52.72C111.696 51.568 112.464 50.096 112.464 48.304C112.464 46.8107 111.824 45.6373 110.544 44.784C109.264 43.888 107.195 43.312 104.336 43.056L100.816 42.736C96.1653 42.352 92.4533 40.9227 89.68 38.448C86.9067 35.9307 85.52 32.5813 85.52 28.4C85.52 25.4133 86.224 22.832 87.632 20.656C89.0827 18.48 91.088 16.816 93.648 15.664C96.208 14.4693 99.2373 13.872 102.736 13.872C106.405 13.872 109.541 14.512 112.144 15.792C114.789 17.072 116.816 18.864 118.224 21.168C119.632 23.4293 120.336 26.0747 120.336 29.104H110.096C110.096 27.3973 109.477 25.904 108.24 24.624C107.003 23.344 105.168 22.704 102.736 22.704C100.389 22.704 98.64 23.28 97.488 24.432C96.336 25.5413 95.76 26.864 95.76 28.4C95.76 29.7227 96.208 30.8747 97.104 31.856C98.0427 32.8373 99.6 33.4133 101.776 33.584L105.36 33.904C108.773 34.2027 111.781 34.9493 114.384 36.144C116.987 37.296 119.013 38.896 120.464 40.944C121.957 42.9493 122.704 45.4027 122.704 48.304C122.704 51.2907 121.915 53.9147 120.336 56.176C118.8 58.3947 116.603 60.1227 113.744 61.36C110.885 62.5973 107.472 63.216 103.504 63.216ZM137.841 62V24.432H124.721V15.28H161.521V24.432H148.337V62H137.841ZM188.313 63.216C184.089 63.216 180.462 62.4907 177.433 61.04C174.404 59.5467 171.908 57.6053 169.945 55.216C168.025 52.784 166.617 50.1813 165.721 47.408C164.825 44.592 164.377 41.8613 164.377 39.216V37.808C164.377 34.9067 164.846 32.048 165.785 29.232C166.724 26.3733 168.153 23.792 170.073 21.488C172.036 19.184 174.489 17.3493 177.433 15.984C180.42 14.576 183.94 13.872 187.993 13.872C192.217 13.872 195.929 14.6613 199.129 16.24C202.372 17.8187 204.953 20.016 206.873 22.832C208.836 25.648 210.009 28.912 210.393 32.624H199.833C199.364 29.8507 198.062 27.6747 195.929 26.096C193.796 24.4747 191.15 23.664 187.993 23.664C183.812 23.664 180.59 25.0507 178.329 27.824C176.11 30.5547 175.001 34.1387 175.001 38.576C175.001 41.52 175.513 44.1227 176.537 46.384C177.561 48.6027 179.054 50.3307 181.017 51.568C183.022 52.8053 185.454 53.424 188.313 53.424C191.556 53.424 194.286 52.6347 196.505 51.056C198.766 49.4773 200.132 47.3013 200.601 44.528H211.097C210.713 47.984 209.561 51.12 207.641 53.936C205.764 56.752 203.182 59.0133 199.897 60.72C196.654 62.384 192.793 63.216 188.313 63.216ZM213.207 62L228.631 15.28H245.591L261.591 62H250.711L246.935 50.416H227.415L223.703 62H213.207ZM230.167 41.712H244.055L238.231 23.856H235.863L230.167 41.712ZM267.686 62V14.896H286.054C291.899 14.896 296.528 16.2187 299.942 18.864C303.355 21.4667 305.062 25.3707 305.062 30.576V31.6C305.062 35.0133 304.272 37.872 302.694 40.176C301.158 42.4373 299.003 44.144 296.229 45.296L308.198 62H296.038L285.798 47.024H278.182V62H267.686ZM286.886 23.792H278.182V38.768H286.886C289.147 38.768 290.96 38.0853 292.326 36.72C293.734 35.3547 294.438 33.5413 294.438 31.28C294.438 29.0613 293.734 27.2693 292.326 25.904C290.96 24.496 289.147 23.792 286.886 23.792ZM330.317 63.216C326.093 63.216 322.509 62.5547 319.565 61.232C316.663 59.9093 314.466 58.0747 312.973 55.728C311.522 53.3813 310.797 50.6933 310.797 47.664H320.973C320.973 49.456 321.698 51.0347 323.149 52.4C324.642 53.7227 327.031 54.384 330.317 54.384C333.218 54.384 335.437 53.8293 336.973 52.72C338.509 51.568 339.277 50.096 339.277 48.304C339.277 46.8107 338.637 45.6373 337.357 44.784C336.077 43.888 334.007 43.312 331.149 43.056L327.628 42.736C322.978 42.352 319.266 40.9227 316.493 38.448C313.719 35.9307 312.333 32.5813 312.333 28.4C312.333 25.4133 313.037 22.832 314.445 20.656C315.895 18.48 317.901 16.816 320.461 15.664C323.021 14.4693 326.05 13.872 329.549 13.872C333.218 13.872 336.354 14.512 338.957 15.792C341.602 17.072 343.629 18.864 345.037 21.168C346.445 23.4293 347.149 26.0747 347.149 29.104H336.909C336.909 27.3973 336.29 25.904 335.053 24.624C333.815 23.344 331.981 22.704 329.549 22.704C327.202 22.704 325.453 23.28 324.301 24.432C323.149 25.5413 322.573 26.864 322.573 28.4C322.573 29.7227 323.021 30.8747 323.917 31.856C324.855 32.8373 326.413 33.4133 328.589 33.584L332.173 33.904C335.586 34.2027 338.594 34.9493 341.197 36.144C343.799 37.296 345.826 38.896 347.277 40.944C348.77 42.9493 349.517 45.4027 349.517 48.304C349.517 51.2907 348.727 53.9147 347.149 56.176C345.613 58.3947 343.415 60.1227 340.557 61.36C337.698 62.5973 334.285 63.216 330.317 63.216Z" fill="#003D75"/>
<line x1="145" y1="79.5" x2="352" y2="79.5" stroke="#003D75" stroke-width="3"/>
</svg>
